# File created by Blade
# Date/Time:  Wed Jan 21 14:58:10 2015
# Frame Rate: 120.000 fps
#------------------------------------------------------
:FULLY-SPECIFIED
:DEGREES
556
root 17.830947 35.289088 -22.376895 -166.868488 44.301289 -171.919033
Spine -15.790763 -25.894735 8.606525
Head 15.462191 -26.875242 1.162929
LeftShoulder -3.067238 -34.010832 15.383098
LeftArm 4.660232 9.828571 -14.573328
LeftForeArm 12.314928 -0.000000 -2.720936
LeftHand -11.100388 -0.000000 -2.941173
LeftHandThumb1 -26.253704 0.000000 33.147579
RightShoulder -15.615063 -7.306167 -9.909066
RightArm 3.343340 31.895148 11.144933
RightForeArm -34.886176 -0.000000 4.188691
RightHand -4.003437 0.000000 8.934843
RightHandThumb1 -24.326973 -0.000000 -32.862282
LeftUpLeg 7.049200 36.153813 5.498666
LeftLeg -5.535044 -0.000000 0.000000
LeftFoot -29.727027 40.907062 -22.766583
LeftToeBase 23.564605 -0.000000 -0.000000
RightUpLeg -13.374864 18.658420 -1.974460
RightLeg 1.763199 -0.000000 -0.000000
RightFoot -11.398388 -3.546198 15.771832
RightToeBase 28.006289 -0.000000 -0.000000
557
root 17.846666 35.286655 -22.360442 -166.746204 44.783138 -171.781187
Spine -15.854353 -26.716781 8.737887
Head 15.631077 -27.308532 1.094128
LeftShoulder -2.831996 -34.145144 15.229274
LeftArm 4.877684 10.185131 -15.018321
LeftForeArm 12.524383 -0.000000 -2.587953
LeftHand -11.141433 -0.000000 -2.888848
LeftHandThumb1 -26.253704 0.000000 33.147579
RightShoulder -15.821075 -7.464927 -9.979944
RightArm 2.826283 32.220254 11.257352
RightForeArm -34.845437 -0.000000 4.172300
RightHand -4.029763 -0.000000 8.857895
RightHandThumb1 -24.326973 -0.000000 -32.862282
LeftUpLeg 7.109417 36.437638 5.551351
LeftLeg -5.484391 -0.000000 0.000000
LeftFoot -29.846405 41.038759 -22.857398
LeftToeBase 23.556309 -0.000000 -0.000000
RightUpLeg -13.514290 18.845030 -1.925825
RightLeg 1.855981 -0.000000 -0.000000
RightFoot -11.279283 -3.190902 15.909492
RightToeBase 28.076762 -0.000000 -0.000000
558
root 17.863935 35.284220 -22.340093 -166.582036 45.318896 -171.609264
Spine -15.937579 -27.464526 8.843949
Head 15.839904 -27.752080 1.058102
LeftShoulder -2.606815 -34.061607 15.084661
LeftArm 5.258974 10.387503 -15.460674
LeftForeArm 12.539028 0.000000 -2.536673
LeftHand -11.338851 -0.000000 -2.819234
LeftHandThumb1 -26.253704 0.000000 33.147579
RightShoulder -15.951309 -7.588557 -10.041973
RightArm 2.155753 32.496057 11.288114
RightForeArm -34.712964 -0.000000 4.189178
RightHand -4.252864 -0.000000 8.786562
RightHandThumb1 -24.326973 -0.000000 -32.862282
LeftUpLeg 7.167169 36.766255 5.622162
LeftLeg -5.427023 -0.000000 0.000000
LeftFoot -29.908525 41.148212 -22.873908
LeftToeBase 23.488934 -0.000000 -0.000000
RightUpLeg -13.697668 19.180561 -1.888584
RightLeg 1.988013 -0.000000 -0.000000
RightFoot -11.121465 -2.994140 15.934810
RightToeBase 27.764793 -0.000000 -0.000000
559
root 17.877406 35.282510 -22.324790 -166.445383 45.806126 -171.458759
Spine -16.019846 -28.276183 8.990576
Head 16.017567 -28.079837 1.022634
LeftShoulder -2.424971 -34.105900 14.910900
LeftArm 5.628006 10.839471 -15.884725
LeftForeArm 12.495362 -0.000000 -2.475879
LeftHand -11.363550 -0.000000 -2.757308
LeftHandThumb1 -26.253704 0.000000 33.147579
RightShoulder -16.123710 -7.707870 -10.143317
RightArm 1.586623 32.900327 11.392046
RightForeArm -34.732559 -0.000000 4.195988
RightHand -4.330308 -0.000000 8.712386
RightHandThumb1 -24.326973 -0.000000 -32.862282
LeftUpLeg 7.235498 37.040566 5.668061
LeftLeg -5.404764 -0.000000 0.000000
LeftFoot -30.021389 41.292742 -22.979652
LeftToeBase 23.459938 -0.000000 -0.000000
RightUpLeg -13.841072 19.434643 -1.854433
RightLeg 2.079480 -0.000000 -0.000000
RightFoot -11.002309 -2.731019 16.013326
RightToeBase 27.935470 -0.000000 -0.000000
560
root 17.892806 35.280740 -22.303879 -166.303294 46.289372 -171.302171
Spine -16.059507 -29.052661 9.073715
Head 16.146229 -28.507570 1.013585
LeftShoulder -2.258842 -34.162137 14.828021
LeftArm 6.017226 11.167345 -16.385735
LeftForeArm 12.681573 -0.000000 -2.396753
LeftHand -11.272505 -0.000000 -2.705042
LeftHandThumb1 -26.253704 0.000000 33.147579
RightShoulder -16.325880 -7.828710 -10.194989
RightArm 0.945898 33.312591 11.484366
RightForeArm -34.760340 -0.000000 4.288417
RightHand -4.549533 -0.000000 8.663097
RightHandThumb1 -24.326973 -0.000000 -32.862282
LeftUpLeg 7.281053 37.316587 5.721115
LeftLeg -5.348874 -0.000000 0.000000
LeftFoot -30.136613 41.444747 -23.060838
LeftToeBase 23.385189 -0.000000 -0.000000
RightUpLeg -13.980866 19.659886 -1.801936
RightLeg 2.144587 -0.000000 -0.000000
RightFoot -10.886131 -2.442652 16.071890
RightToeBase 28.187179 -0.000000 -0.000000
561
root 17.909213 35.278786 -22.286408 -166.136085 46.807271 -171.118840
Spine -16.101441 -29.750978 9.169216
Head 16.280476 -28.966062 1.039898
LeftShoulder -2.079349 -34.290221 14.730498
LeftArm 6.388000 11.590397 -16.888689
LeftForeArm 12.740750 0.000000 -2.261711
LeftHand -11.276606 -0.000000 -2.735641
LeftHandThumb1 -26.253704 0.000000 33.147579
RightShoulder -16.546530 -8.036410 -10.246264
RightArm 0.281216 33.752733 11.577465
RightForeArm -34.820181 0.000000 4.411324
RightHand -4.724119 -0.000000 8.455520
RightHandThumb1 -24.326973 -0.000000 -32.862282
LeftUpLeg 7.348075 37.614665 5.783705
LeftLeg -5.318600 -0.000000 0.000000
LeftFoot -30.246435 41.627728 -23.137795
LeftToeBase 23.343937 -0.000000 -0.000000
RightUpLeg -14.122649 19.977767 -1.759570
RightLeg 2.220090 -0.000000 -0.000000
RightFoot -10.688112 -2.254743 16.139413
RightToeBase 27.851198 -0.000000 -0.000000
562
root 17.921550 35.277487 -22.270412 -166.015944 47.308347 -170.963033
Spine -16.107100 -30.457258 9.213105
Head 16.441255 -29.378902 1.093863
LeftShoulder -1.832741 -34.618998 14.648707
LeftArm 6.640063 12.059519 -17.468861
LeftForeArm 13.041401 -0.000000 -2.156540
LeftHand -11.252668 0.000000 -2.670665
LeftHandThumb1 -26.253704 0.000000 33.147579
RightShoulder -16.739977 -8.267297 -10.295791
RightArm -0.444709 34.192216 11.675618
RightForeArm -34.789383 -0.000000 4.572778
RightHand -4.882446 -0.000000 8.313363
RightHandThumb1 -24.326973 -0.000000 -32.862282
LeftUpLeg 7.443972 37.904922 5.843398
LeftLeg -5.287342 -0.000000 0.000000
LeftFoot -30.343264 41.779131 -23.218524
LeftToeBase 23.309242 -0.000000 -0.000000
RightUpLeg -14.228036 20.241412 -1.722356
RightLeg 2.275716 -0.000000 -0.000000
RightFoot -10.560888 -2.022661 16.131825
RightToeBase 28.105790 -0.000000 -0.000000
563
root 17.936487 35.276799 -22.248234 -165.914288 47.739794 -170.857608
Spine -16.133269 -31.246651 9.214747
Head 16.607802 -29.838287 1.194129
LeftShoulder -1.687155 -34.854628 14.634475
LeftArm 7.029854 12.551994 -18.031371
LeftForeArm 13.210154 0.000000 -2.046964
LeftHand -11.515546 -0.000000 -2.530037
LeftHandThumb1 -26.253704 0.000000 33.147579
RightShoulder -16.956675 -8.538568 -10.335511
RightArm -1.132248 34.781674 11.847878
RightForeArm -34.840220 -0.000000 4.728521
RightHand -5.032719 -0.000000 8.165083
RightHandThumb1 -24.326973 -0.000000 -32.862282
LeftUpLeg 7.460983 38.134124 5.866969
LeftLeg -5.193215 -0.000000 0.000000
LeftFoot -30.458789 41.906460 -23.314139
LeftToeBase 23.216339 -0.000000 -0.000000
RightUpLeg -14.333756 20.412892 -1.691267
RightLeg 2.319995 -0.000000 -0.000000
RightFoot -10.426382 -1.773411 16.130966
RightToeBase 28.181374 -0.000000 -0.000000
564
root 17.944159 35.275504 -22.227603 -165.772606 48.305879 -170.697793
Spine -16.120923 -31.847824 9.226520
Head 16.733911 -30.404877 1.171138
LeftShoulder -1.407008 -34.421361 14.369760
LeftArm 7.680307 12.378896 -18.339851
LeftForeArm 13.269875 -0.000000 -1.998150
LeftHand -11.515557 -0.000000 -2.722944
LeftHandThumb1 -26.253704 0.000000 33.147579
RightShoulder -17.157923 -8.592939 -10.480972
RightArm -1.972788 35.043523 11.954026
RightForeArm -34.735889 -0.000000 4.906290
RightHand -5.071138 -0.000000 7.869012
RightHandThumb1 -24.326973 -0.000000 -32.862282
LeftUpLeg 7.512758 38.463715 5.898125
LeftLeg -5.108454 -0.000000 0.000000
LeftFoot -30.575873 42.064177 -23.386783
LeftToeBase 23.197883 -0.000000 -0.000000
RightUpLeg -14.488466 20.746584 -1.685616
RightLeg 2.404229 -0.000000 -0.000000
RightFoot -10.261894 -1.525819 16.229862
RightToeBase 28.223989 -0.000000 -0.000000
565
root 17.954755 35.273428 -22.210408 -165.674727 48.827392 -170.568534
Spine -16.108162 -32.567226 9.220451
Head 16.877934 -30.781552 1.220497
LeftShoulder -1.256069 -34.404964 14.277474
LeftArm 8.178834 12.593763 -18.788832
LeftForeArm 13.283163 0.000000 -1.927141
LeftHand -11.552461 -0.000000 -2.639002
LeftHandThumb1 -26.253704 0.000000 33.147579
RightShoulder -17.285573 -8.685315 -10.597470
RightArm -2.773452 35.514196 12.036898
RightForeArm -34.667611 -0.000000 5.007172
RightHand -5.249151 0.000000 7.710526
RightHandThumb1 -24.326973 -0.000000 -32.862282
LeftUpLeg 7.595112 38.773913 5.930476
LeftLeg -5.051613 -0.000000 0.000000
LeftFoot -30.694192 42.268100 -23.418005
LeftToeBase 23.296002 -0.000000 -0.000000
RightUpLeg -14.576398 20.981602 -1.660881
RightLeg 2.442719 -0.000000 -0.000000
RightFoot -10.100398 -1.265377 16.243175
RightToeBase 28.217499 -0.000000 -0.000000
566
root 17.969054 35.272368 -22.189205 -165.564041 49.294338 -170.450465
Spine -16.153145 -33.292496 9.219447
Head 17.083693 -31.213821 1.231210
LeftShoulder -0.979899 -34.504175 14.146476
LeftArm 8.530043 12.734437 -19.274749
LeftForeArm 13.549455 -0.000000 -1.825688
LeftHand -11.616582 -0.000000 -2.588237
LeftHandThumb1 -26.253704 0.000000 33.147579
RightShoulder -17.436625 -8.764628 -10.744568
RightArm -3.599997 35.956364 12.104712
RightForeArm -34.648797 0.000000 5.062018
RightHand -5.324355 -0.000000 7.622946
RightHandThumb1 -24.326973 -0.000000 -32.862282
LeftUpLeg 7.627054 38.955459 5.940766
LeftLeg -4.964537 -0.000000 0.000000
LeftFoot -30.829804 42.419380 -23.571179
LeftToeBase 23.074748 -0.000000 -0.000000
RightUpLeg -14.678495 21.191534 -1.630881
RightLeg 2.481951 -0.000000 -0.000000
RightFoot -9.972686 -1.056546 16.258623
RightToeBase 28.291259 -0.000000 -0.000000
567
root 17.975867 35.269847 -22.169036 -165.448150 49.849846 -170.304791
Spine -16.117644 -33.914585 9.178743
Head 17.254941 -31.707407 1.250041
LeftShoulder -0.751026 -34.465671 14.034119
LeftArm 9.006024 12.788058 -19.758619
LeftForeArm 13.567073 0.000000 -1.724585
LeftHand -11.886733 -0.000000 -2.324541
LeftHandThumb1 -26.253704 0.000000 33.147579
RightShoulder -17.590486 -8.806450 -10.871431
RightArm -4.441925 36.405026 12.114326
RightForeArm -34.602290 -0.000000 5.036189
RightHand -5.138337 -0.000000 7.440179
RightHandThumb1 -24.326973 -0.000000 -32.862282
LeftUpLeg 7.689858 39.272198 5.956501
LeftLeg -4.884156 -0.000000 0.000000
LeftFoot -30.925483 42.624914 -23.534576
LeftToeBase 23.095499 -0.000000 -0.000000
RightUpLeg -14.793480 21.462857 -1.615118
RightLeg 2.540142 -0.000000 -0.000000
RightFoot -9.814542 -0.748644 16.284849
RightToeBase 28.673315 -0.000000 -0.000000
